<svg xmlns="http://www.w3.org/2000/svg" width="248.639" height="73" viewBox="0 0 248.639 73">
  <g id="logo-white" transform="translate(0.5 0.5)">
    <g id="Group_30" data-name="Group 30" transform="translate(87.065 43.518)">
      <path id="Path_51" data-name="Path 51" d="M63.254,36.721a7.205,7.205,0,0,1,7.2,7.2v6.791H67.065v2.685h9.457V50.707H73.135V43.916a9.88,9.88,0,0,0-19.761,0v9.448h2.685V43.916A7.205,7.205,0,0,1,63.254,36.721Z" transform="translate(-53.374 -34.036)" fill="#f7f7f7"/>
      <rect id="Rectangle_34" data-name="Rectangle 34" width="2.686" height="2.686" transform="translate(25.109 16.671)" fill="#f7f7f7"/>
      <path id="Path_52" data-name="Path 52" d="M88.252,36.888a9.664,9.664,0,0,0-16.546,6.868,9.678,9.678,0,1,0,16.546-6.868ZM86.275,48.774a6.936,6.936,0,0,1-9.8,0,7.393,7.393,0,0,1,0-10.074,6.9,6.9,0,0,1,9.8,0,6.968,6.968,0,0,1,2,5.057A6.892,6.892,0,0,1,86.275,48.774Z" transform="translate(-38.911 -34.015)" fill="#f7f7f7"/>
      <path id="Path_53" data-name="Path 53" d="M109.044,53.371V34.063h-2.525l-8.063,14.92-.1-.193L90.424,34.063H87.87V53.371h2.8V40.535l6.9,12.836h1.783l6.9-12.836V53.371Z" transform="translate(-26.158 -34.015)" fill="#f7f7f7"/>
      <path id="Path_54" data-name="Path 54" d="M127.1,34.063h-6.707V53.371H127.1a11.017,11.017,0,0,0,7.782-2.7,9.117,9.117,0,0,0,2.893-6.959,9.113,9.113,0,0,0-2.893-6.957A11.023,11.023,0,0,0,127.1,34.063Zm5.657,14.775A8.014,8.014,0,0,1,127.1,50.8H123.27V36.661H127.1a8.014,8.014,0,0,1,5.658,1.959,6.681,6.681,0,0,1,2.111,5.109A6.684,6.684,0,0,1,132.755,48.838Z" transform="translate(-0.499 -34.015)" fill="#f7f7f7"/>
      <path id="Path_55" data-name="Path 55" d="M124.291,53.371l-8.5-19.308h-2.764l-8.5,19.308h3.125l4.732-11.136.123.129a2.632,2.632,0,0,0,3.8,0l.123-.129,4.734,11.136Z" transform="translate(-13.018 -34.015)" fill="#f7f7f7"/>
    </g>
    <g id="Group_31" data-name="Group 31" transform="translate(87.066 9.714)">
      <path id="Path_56" data-name="Path 56" d="M124.817,34.76,116.18,15.14h-2.81l-8.639,19.62h3.179l4.807-11.313.123.129a2.676,2.676,0,0,0,3.868,0l.123-.129,4.807,11.313Z" transform="translate(-12.856 -15.14)" fill="#f7f7f7"/>
      <path id="Path_57" data-name="Path 57" d="M71.959,26.1,79.69,34.76h3.358l-7.843-8.691.252-.011a6.4,6.4,0,0,0,4.023-1.463A5.1,5.1,0,0,0,81.25,20.6a5.1,5.1,0,0,0-1.769-3.991,6.539,6.539,0,0,0-4.41-1.472H66.216V34.76H68.66V26.065h3.265Zm-3.3-8.573h6.412a4.135,4.135,0,0,1,2.784.873,2.741,2.741,0,0,1,.95,2.2,2.735,2.735,0,0,1-.95,2.2,4.135,4.135,0,0,1-2.784.873H68.66Z" transform="translate(-43.243 -15.14)" fill="#f7f7f7"/>
      <path id="Path_58" data-name="Path 58" d="M94.808,17.532V15.14H80.491V34.759H94.808V32.367H82.936V26.093H94.014V23.7H82.936V17.532Z" transform="translate(-31.98 -15.14)" fill="#f7f7f7"/>
      <path id="Path_59" data-name="Path 59" d="M106.521,23.7H95.707V17.532h11.608V15.14H93.263V34.759h2.444V26.093h10.814Z" transform="translate(-21.903 -15.14)" fill="#f7f7f7"/>
      <path id="Path_60" data-name="Path 60" d="M135.133,16.58a10.01,10.01,0,0,0-5.369-1.44,9.44,9.44,0,0,0-6.925,2.846,9.537,9.537,0,0,0-2.832,6.963,9.7,9.7,0,0,0,9.757,9.811,10.021,10.021,0,0,0,5.369-1.44,8.719,8.719,0,0,0,3.431-3.868l.4-.875-2.24-.853-.347.782a6.356,6.356,0,0,1-2.5,2.853,7.654,7.654,0,0,1-4.106,1.077,7.123,7.123,0,0,1-5.243-2.159,7.314,7.314,0,0,1-2.138-5.328,7.307,7.307,0,0,1,2.138-5.326,7.123,7.123,0,0,1,5.243-2.159,7.709,7.709,0,0,1,4.131,1.089,6.24,6.24,0,0,1,2.5,2.834l.025.054.327.748,2.206-.88-.39-.862A8.724,8.724,0,0,0,135.133,16.58Z" transform="translate(-0.803 -15.14)" fill="#f7f7f7"/>
      <path id="Path_61" data-name="Path 61" d="M149.726,17.532V15.14H135.407V34.759h14.318V32.367H137.852V26.093h11.078V23.7H137.852V17.532Z" transform="translate(11.347 -15.14)" fill="#f7f7f7"/>
      <rect id="Rectangle_35" data-name="Rectangle 35" width="2.421" height="2.522" transform="translate(0 17.097)" fill="#f7f7f7"/>
      <path id="Path_62" data-name="Path 62" d="M65.883,25.124a5.66,5.66,0,0,0,.8-.871,5.721,5.721,0,0,0-.8-7.519A6.752,6.752,0,0,0,61.26,15.14H53.385v7.285l2.422-.016v-4.9H61.26a4.8,4.8,0,0,1,2.408.564,3.6,3.6,0,0,1,.585.422,3.082,3.082,0,0,1,1.061,2.433,3.079,3.079,0,0,1-1.061,2.433,3.654,3.654,0,0,1-1.272.728,5.368,5.368,0,0,1-1.721.258H53.385v6.3h2.422V26.718H61.26A6.752,6.752,0,0,0,65.883,25.124Z" transform="translate(-53.366 -15.14)" fill="#f7f7f7"/>
    </g>
    <g id="Group_33" data-name="Group 33" transform="translate(0 0)">
      <path id="Path_63" data-name="Path 63" d="M40.705,81.711a36,36,0,1,1,36-36A36.041,36.041,0,0,1,40.705,81.711Zm0-70.367A34.367,34.367,0,1,0,75.071,45.711,34.406,34.406,0,0,0,40.705,11.343Z" transform="translate(-4.706 -9.71)" fill="#f7f7f7" stroke="#e3e3e3" stroke-miterlimit="10" stroke-width="1"/>
      <g id="Group_32" data-name="Group 32" transform="translate(19.024 20.321)">
        <path id="Path_64" data-name="Path 64" d="M42.463,34.629a13.561,13.561,0,0,0-27.123,0V47.6H19.3V34.629a9.6,9.6,0,0,1,19.2,0v9.05H33.908v3.961H47.055V43.68H42.463Z" transform="translate(-15.34 -21.069)" fill="#f7f7f7"/>
        <rect id="Rectangle_36" data-name="Rectangle 36" width="3.962" height="3.962" transform="translate(34.056 22.61)" fill="#f7f7f7"/>
      </g>
    </g>
  </g>
</svg>
